<svg width="456" height="456" viewBox="0 0 456 456" fill="none" xmlns="http://www.w3.org/2000/svg">
<path d="M445 303.801C404.051 320.262 359.165 324.33 315.921 315.498C272.678 306.667 232.985 285.327 201.776 254.13C170.567 222.933 149.218 183.255 140.384 140.029C131.549 96.8022 135.618 51.9335 152.085 11C103.593 30.525 63.4044 66.3039 38.4102 112.203C13.416 158.102 5.17247 211.263 15.0928 262.572C25.0131 313.881 52.4794 360.143 92.7832 393.427C133.087 426.71 183.718 444.943 235.997 445C280.953 445.001 324.881 431.555 362.128 406.392C399.375 381.228 428.237 345.499 445 303.801Z" fill="white" stroke="white" stroke-width="21.7" stroke-linecap="round" stroke-linejoin="round"/>
</svg>
