<svg width="434" height="434" viewBox="0 0 434 434" fill="none" xmlns="http://www.w3.org/2000/svg">
<path fill-rule="evenodd" clip-rule="evenodd" d="M217 0C224.194 0 231.093 2.8578 236.18 7.94473C241.267 13.0317 244.125 19.931 244.125 27.125V54.25C244.125 61.444 241.267 68.3433 236.18 73.4303C231.093 78.5172 224.194 81.375 217 81.375C209.806 81.375 202.907 78.5172 197.82 73.4303C192.733 68.3433 189.875 61.444 189.875 54.25V27.125C189.875 19.931 192.733 13.0317 197.82 7.94473C202.907 2.8578 209.806 0 217 0ZM325.5 217C325.5 245.776 314.069 273.373 293.721 293.721C273.373 314.069 245.776 325.5 217 325.5C188.224 325.5 160.627 314.069 140.279 293.721C119.931 273.373 108.5 245.776 108.5 217C108.5 188.224 119.931 160.627 140.279 140.279C160.627 119.931 188.224 108.5 217 108.5C245.776 108.5 273.373 119.931 293.721 140.279C314.069 160.627 325.5 188.224 325.5 217ZM312.914 351.269L332.091 370.446C337.207 375.387 344.059 378.121 351.171 378.059C358.283 377.998 365.087 375.145 370.116 370.116C375.145 365.087 377.998 358.283 378.059 351.171C378.121 344.059 375.387 337.207 370.446 332.091L351.269 312.914C346.153 307.973 339.301 305.239 332.189 305.301C325.077 305.363 318.274 308.215 313.244 313.244C308.215 318.274 305.363 325.077 305.301 332.189C305.239 339.301 307.973 346.153 312.914 351.269ZM370.419 63.5539C375.504 68.6406 378.361 75.5387 378.361 82.7313C378.361 89.9238 375.504 96.8219 370.419 101.909L351.269 121.086C348.767 123.677 345.773 125.743 342.464 127.165C339.155 128.586 335.595 129.335 331.994 129.366C328.392 129.397 324.82 128.711 321.487 127.347C318.153 125.983 315.125 123.969 312.578 121.422C310.031 118.875 308.017 115.847 306.653 112.513C305.289 109.18 304.603 105.608 304.634 102.006C304.665 98.4046 305.414 94.8453 306.835 91.5359C308.257 88.2265 310.323 85.2335 312.914 82.7313L332.091 63.5539C337.178 58.4687 344.076 55.612 351.269 55.612C358.461 55.612 365.332 58.4687 370.419 63.5539ZM406.875 244.125C414.069 244.125 420.968 241.267 426.055 236.18C431.142 231.093 434 224.194 434 217C434 209.806 431.142 202.907 426.055 197.82C420.968 192.733 414.069 189.875 406.875 189.875H379.75C372.556 189.875 365.657 192.733 360.57 197.82C355.483 202.907 352.625 209.806 352.625 217C352.625 224.194 355.483 231.093 360.57 236.18C365.657 241.267 372.556 244.125 379.75 244.125H406.875ZM217 352.625C224.194 352.625 231.093 355.483 236.18 360.57C241.267 365.657 244.125 372.556 244.125 379.75V406.875C244.125 414.069 241.267 420.968 236.18 426.055C231.093 431.142 224.194 434 217 434C209.806 434 202.907 431.142 197.82 426.055C192.733 420.968 189.875 414.069 189.875 406.875V379.75C189.875 372.556 192.733 365.657 197.82 360.57C202.907 355.483 209.806 352.625 217 352.625ZM82.7313 121.086C85.2497 123.606 88.2398 125.606 91.5309 126.97C94.8221 128.335 98.3498 129.038 101.913 129.039C105.475 129.04 109.004 128.34 112.296 126.978C115.588 125.615 118.579 123.618 121.1 121.1C123.62 118.581 125.619 115.591 126.984 112.3C128.348 109.009 129.051 105.481 129.053 101.918C129.054 98.3554 128.353 94.8272 126.991 91.5351C125.629 88.243 123.632 85.2514 121.113 82.7313L101.909 63.5539C96.7928 58.6128 89.941 55.8788 82.8289 55.9406C75.7168 56.0024 68.9135 58.8551 63.8843 63.8843C58.8551 68.9135 56.0024 75.7168 55.9406 82.8289C55.8788 89.941 58.6128 96.7928 63.5539 101.909L82.7313 121.086ZM121.086 351.269L101.909 370.446C96.7928 375.387 89.941 378.121 82.8289 378.059C75.7168 377.998 68.9135 375.145 63.8843 370.116C58.8551 365.087 56.0024 358.283 55.9406 351.171C55.8788 344.059 58.6128 337.207 63.5539 332.091L82.7313 312.914C87.8471 307.973 94.6989 305.239 101.811 305.301C108.923 305.363 115.726 308.215 120.756 313.244C125.785 318.274 128.637 325.077 128.699 332.189C128.761 339.301 126.027 346.153 121.086 351.269ZM54.25 244.125C61.444 244.125 68.3433 241.267 73.4303 236.18C78.5172 231.093 81.375 224.194 81.375 217C81.375 209.806 78.5172 202.907 73.4303 197.82C68.3433 192.733 61.444 189.875 54.25 189.875H27.125C19.931 189.875 13.0317 192.733 7.94473 197.82C2.8578 202.907 0 209.806 0 217C0 224.194 2.8578 231.093 7.94473 236.18C13.0317 241.267 19.931 244.125 27.125 244.125H54.25Z" fill="white"/>
</svg>
